<?xml version="1.0" encoding="utf-8"?>
<svg viewBox="0.001 -0.0029 60.0064 60.0029" xmlns="http://www.w3.org/2000/svg">
  <path d="M49.3466 28.7434C49.3466 27.69 48.9379 26.702 48.1942 25.9584L38.2213 15.9833C37.4776 15.2417 36.4896 14.833 35.4363 14.833C34.3829 14.833 33.3949 15.2417 32.6512 15.9854L29.5987 19.038L26.5482 15.9854C25.8046 15.2417 24.8165 14.8352 23.7632 14.8352C22.7099 14.8352 21.7219 15.2438 20.9782 15.9854L11.0052 25.9584C10.2616 26.702 9.85289 27.69 9.85289 28.7434C9.85289 29.7967 10.2658 30.7889 11.0221 31.5431L15.9959 36.3295C16.0465 37.3997 16.5121 38.394 17.321 39.1482C17.8709 39.6622 18.545 40.014 19.2465 40.1594C19.4066 40.922 19.7795 41.8384 20.4094 42.4178C20.9382 42.9402 21.6271 43.292 22.3749 43.4289C22.5582 44.2358 22.9753 44.9921 23.5294 45.5019C24.0308 45.9612 24.8798 46.4963 25.8404 46.709C26.2449 47.9541 26.9864 48.7441 28.1029 49.117C28.3326 49.1928 28.8024 49.3213 29.3754 49.3213C30.2791 49.3213 31.1092 49.0074 31.7749 48.4175C31.7938 48.4007 31.8149 48.3817 31.836 48.3607C31.895 48.2996 32.0045 48.1984 32.1478 48.0657C33.5487 46.7533 34.364 45.8769 34.8569 45.1438C35.1392 45.2049 35.4342 45.2365 35.7186 45.2365C36.2368 45.2365 36.9847 45.1354 37.5872 44.6677C38.3772 44.101 38.8554 43.2815 38.9586 42.3293C39.7676 42.2345 40.5576 41.8806 41.0884 41.3581C41.6509 40.804 42.0091 39.993 42.0744 39.1672C42.9908 39.0534 43.785 38.6637 44.3896 38.0253C45.4134 36.9446 45.2976 35.47 45.03 34.6968L48.1963 31.5305C48.94 30.7889 49.3487 29.7988 49.3487 28.7476L49.3466 28.7434ZM32.9167 30.1485C32.4574 30.6036 32.4553 31.3472 32.9104 31.8086L39.6875 38.6468C39.7992 38.8828 39.7044 39.42 39.4389 39.6833C39.2809 39.8371 38.887 40.0056 38.5204 40.0056C38.3814 40.0056 38.3055 39.9803 38.2718 39.9635L31.4146 32.9356C30.9764 32.489 30.2054 32.4785 29.7567 32.9167C29.2932 33.3675 29.2848 34.1133 29.7356 34.5767L36.5886 41.6004C36.6476 41.8637 36.696 42.4199 36.1841 42.7864C36.1357 42.8243 35.9819 42.8875 35.7059 42.8875C35.5732 42.8875 35.4384 42.8728 35.3141 42.8433C35.1877 42.3124 34.9454 41.6425 34.4798 41.0737C34.0438 40.5407 33.2411 39.993 32.331 39.8392C32.2594 39.0639 31.9497 38.3687 31.4294 37.8126C30.6015 36.932 29.7609 36.6265 29.1078 36.5465C28.9878 35.8302 28.6402 35.1729 28.0924 34.6315C27.492 34.0374 26.7294 33.7256 25.8214 33.6983C25.7646 32.9167 25.4464 32.1836 24.8819 31.5558C24.0308 30.6078 23.0764 30.4034 22.4128 30.3971C21.5575 30.3971 20.6791 30.751 20.1882 31.2819L17.1715 34.2039L12.6653 29.8683C12.364 29.5671 12.1997 29.1668 12.1997 28.7413C12.1997 28.3157 12.3661 27.9155 12.6653 27.6142L22.6383 17.6412C23.2387 17.0408 24.2899 17.0408 24.8903 17.6412L27.9407 20.6917C26.7526 21.8735 22.5477 26.0595 22.1558 26.5061C21.7977 26.9148 21.6313 27.4372 21.6903 27.9787C21.7703 28.7265 22.2612 29.4554 23.1123 30.0874C24.0897 30.8121 25.2252 31.1955 26.4008 31.1955C27.8354 31.1955 29.2469 30.6162 30.3782 29.5608C31.1534 28.8382 32.8809 27.1486 33.7256 26.3207L42.8538 35.6006C42.8939 35.7965 42.9234 36.1588 42.6895 36.4053C42.3546 36.7592 41.8279 36.9046 41.2001 36.8309L34.581 30.1527C34.1407 29.7082 33.3696 29.704 32.9209 30.1443L32.9167 30.1485ZM25.0061 36.1483C25.1705 36.0999 25.4233 36.043 25.6908 36.043C26.0173 36.043 26.2701 36.1293 26.445 36.3C26.82 36.6708 26.8432 37.0626 26.8031 37.3133L22.9753 41.1369C22.7288 41.12 22.3517 41.0358 22.0294 40.7198C21.804 40.5133 21.5807 39.9782 21.5133 39.5211L25.0061 36.1483ZM28.5411 38.8933C28.5875 38.8785 28.6549 38.8638 28.7371 38.8638C29.0383 38.8638 29.3796 39.0555 29.7209 39.42C30.0769 39.7992 30.0263 40.3279 29.961 40.6144L26.3186 44.4064C25.9015 44.3074 25.4317 44.0631 25.1136 43.7723C24.8882 43.5659 24.6944 43.1551 24.6375 42.7927L28.539 38.8933H28.5411ZM31.7138 42.1755C31.9855 42.0807 32.5101 42.3672 32.666 42.5589C32.883 42.8243 33.0157 43.2562 33.0747 43.5848C32.9715 43.8039 32.5185 44.5055 30.5446 46.353C30.3908 46.4963 30.2686 46.6121 30.2138 46.6669C29.9779 46.8712 29.6935 46.9745 29.3648 46.9745C29.1331 46.9745 28.9393 46.9218 28.8487 46.8923C28.5622 46.7954 28.2883 46.65 28.0714 45.9696L31.7138 42.1755ZM33.7362 23.4936C33.4265 23.4936 33.1358 23.6136 32.9104 23.8327C32.883 23.8601 29.8241 26.8727 28.775 27.8501C28.0882 28.4906 27.2413 28.8445 26.3923 28.8445C25.7203 28.8445 25.0672 28.6254 24.509 28.2083C24.3131 28.0629 24.1909 27.9407 24.1171 27.8523C25.299 26.6367 31.1387 20.8076 34.3113 17.6476C34.9117 17.0493 35.9629 17.0472 36.5633 17.6476L46.5363 27.6205C47.1578 28.242 47.1578 29.2532 46.5363 29.8725L43.4943 32.9146L34.5725 23.8454C34.3555 23.6242 34.0543 23.4978 33.7425 23.4957H33.7362V23.4936ZM21.863 32.9272C21.9072 32.8809 22.1284 32.746 22.4002 32.746V32.3184L22.4065 32.746C22.6699 32.7481 22.91 32.8724 23.1354 33.1273C23.5989 33.6435 23.4999 34.1723 23.403 34.4356L19.8343 37.8821C19.5204 37.8484 19.1917 37.6904 18.9221 37.4376C18.5977 37.1342 18.3975 36.7466 18.3491 36.3337L21.8651 32.9293L21.863 32.9272Z" fill="white" transform="matrix(0.9999999999999999, 0, 0, 0.9999999999999999, -8.881784197001252e-16, -7.105427357601002e-15)"/>
  <path d="M31.5494 60C31.52 60 31.4926 60 31.4631 59.9979L24.4563 59.5176C23.9254 59.4818 23.4746 59.1152 23.3313 58.6033L21.5006 52.0705L17.5464 50.105L11.2327 52.5909C10.7377 52.7868 10.1731 52.6477 9.82339 52.2475L5.20768 46.9513C4.85797 46.551 4.79899 45.9717 5.06021 45.5082L8.38453 39.5948L6.97728 35.4068L0.75629 32.6997C0.26965 32.4869 -0.0337101 31.9919 0.00420997 31.461L0.48453 24.4521C0.520344 23.9212 0.886904 23.4704 1.39882 23.3271L7.9316 21.4964L9.89712 17.5401L7.41125 11.2285C7.21533 10.7335 7.35437 10.1689 7.75464 9.81918L13.0508 5.20347C13.4532 4.85377 14.0304 4.79478 14.4939 5.05601L20.4094 8.38243L24.5953 6.97518L27.3003 0.752083C27.5131 0.263336 28.0103 -0.0358105 28.539 2.8885e-06L35.5479 0.480323C36.0788 0.516136 36.5296 0.882697 36.6729 1.39462L38.5036 7.92739L42.4599 9.89291L48.7736 7.40494C49.2686 7.20902 49.8332 7.34806 50.1829 7.74833L54.7986 13.0445C55.1483 13.4448 55.2073 14.022 54.9461 14.4854L51.6218 20.3989L53.029 24.5848L59.2521 27.2898C59.7388 27.5025 60.0421 27.9976 60.0042 28.5285L59.5239 35.5353C59.4881 36.0662 59.1215 36.517 58.6096 36.6602L52.0768 38.4909L50.1113 42.4451L52.5972 48.7588C52.7931 49.2539 52.654 49.8185 52.2538 50.1682L46.9576 54.7839C46.5574 55.1336 45.978 55.1926 45.5146 54.9314L39.6011 51.6049L35.4152 53.0122L32.7102 59.2353C32.5101 59.6966 32.0551 59.9916 31.5579 59.9916L31.5494 60ZM25.5117 57.0675L30.7489 57.4278L33.3233 51.5059C33.4644 51.1794 33.7383 50.9287 34.0753 50.8149L39.3209 49.0517C39.658 48.9379 40.0267 48.9737 40.3385 49.1465L45.9675 52.3107L49.9259 48.8599L47.5601 42.8517C47.4295 42.521 47.4464 42.1502 47.6044 41.8321L50.0671 36.8772C50.2251 36.5591 50.5116 36.3211 50.8528 36.2263L57.0696 34.484L57.4299 29.2469L51.5101 26.6725C51.1836 26.5314 50.9329 26.2575 50.8191 25.9204L49.0559 20.6748C48.9421 20.3378 48.9779 19.9691 49.1507 19.6573L52.3149 14.0283L48.8642 10.0699L42.858 12.4357C42.5273 12.5663 42.1565 12.5494 41.8384 12.3914L36.8814 9.92873C36.5633 9.77073 36.3253 9.48422 36.2305 9.14294L34.4883 2.92616L29.249 2.56592L26.6746 8.48777C26.5335 8.8143 26.2596 9.06499 25.9225 9.17875L20.6769 10.9399C20.3399 11.0537 19.9712 11.0179 19.6615 10.8451L14.0325 7.68091L10.0741 11.1316L12.4399 17.1377C12.5705 17.4685 12.5536 17.8393 12.3956 18.1574L9.93293 23.1144C9.77493 23.4325 9.48843 23.6705 9.14715 23.7653L2.93037 25.5075L2.57224 30.7468L8.49197 33.3212C8.81851 33.4623 9.0692 33.7362 9.18296 34.0732L10.9462 39.3188C11.06 39.6559 11.0242 40.0246 10.8514 40.3364L7.68723 45.9654L11.1379 49.9238L17.1462 47.558C17.4769 47.4274 17.8477 47.4443 18.1658 47.6023L23.1207 50.065C23.4388 50.223 23.6747 50.5095 23.7716 50.8507L25.5138 57.0675H25.5117Z" fill="white" transform="matrix(0.9999999999999999, 0, 0, 0.9999999999999999, -8.881784197001252e-16, -7.105427357601002e-15)"/>
</svg>